<mxfile host="65bd71144e">
    <diagram id="TAPms08eGs80-zTZIVJS" name="第 1 页">
        <mxGraphModel dx="1413" dy="590" grid="0" gridSize="10" guides="1" tooltips="1" connect="1" arrows="1" fold="1" page="0" pageScale="1" pageWidth="827" pageHeight="1169" math="0" shadow="0">
            <root>
                <mxCell id="0"/>
                <mxCell id="1" parent="0"/>
                <mxCell id="2" value="el-form" style="rounded=1;whiteSpace=wrap;html=1;fillColor=#fff2cc;strokeColor=#d6b656;" parent="1" vertex="1">
                    <mxGeometry x="-230" y="270" width="120" height="60" as="geometry"/>
                </mxCell>
                <mxCell id="3" value="el-form-item" style="whiteSpace=wrap;html=1;rounded=1;strokeColor=#d6b656;fillColor=#fff2cc;" parent="1" vertex="1">
                    <mxGeometry x="400" y="160" width="120" height="60" as="geometry"/>
                </mxCell>
                <mxCell id="9" value="" style="edgeStyle=none;html=1;exitX=1;exitY=0.5;exitDx=0;exitDy=0;" parent="1" source="2" target="5" edge="1">
                    <mxGeometry relative="1" as="geometry">
                        <mxPoint x="320" y="260" as="sourcePoint"/>
                    </mxGeometry>
                </mxCell>
                <mxCell id="5" value="" style="shape=curlyBracket;whiteSpace=wrap;html=1;rounded=1;size=0.5;" parent="1" vertex="1">
                    <mxGeometry x="370" y="190" width="30" height="220" as="geometry"/>
                </mxCell>
                <mxCell id="8" value="el-form-item" style="whiteSpace=wrap;html=1;rounded=1;strokeColor=#d6b656;fillColor=#fff2cc;" parent="1" vertex="1">
                    <mxGeometry x="400" y="380" width="120" height="60" as="geometry"/>
                </mxCell>
                <mxCell id="10" value="..." style="whiteSpace=wrap;html=1;rounded=1;strokeColor=#d6b656;fillColor=#fff2cc;" parent="1" vertex="1">
                    <mxGeometry x="400" y="270" width="120" height="60" as="geometry"/>
                </mxCell>
                <mxCell id="11" value="el-input" style="whiteSpace=wrap;html=1;rounded=1;strokeColor=#82b366;fillColor=#d5e8d4;" parent="1" vertex="1">
                    <mxGeometry x="970" y="160" width="120" height="60" as="geometry"/>
                </mxCell>
                <mxCell id="12" value="el-input" style="whiteSpace=wrap;html=1;rounded=1;strokeColor=#82b366;fillColor=#d5e8d4;" parent="1" vertex="1">
                    <mxGeometry x="970" y="380" width="120" height="60" as="geometry"/>
                </mxCell>
                <mxCell id="13" value="..." style="whiteSpace=wrap;html=1;rounded=1;strokeColor=#82b366;fillColor=#d5e8d4;" parent="1" vertex="1">
                    <mxGeometry x="970" y="270" width="120" height="60" as="geometry"/>
                </mxCell>
                <mxCell id="14" value="&lt;div style=&quot;font-weight: normal ; line-height: 18px ; background-color: rgb(31 , 36 , 48) ; font-size: 12px ; font-family: &amp;#34;jetbrains mono&amp;#34; , &amp;#34;menlo&amp;#34; , &amp;#34;monaco&amp;#34; , &amp;#34;courier new&amp;#34; , monospace , &amp;#34;menlo&amp;#34; , &amp;#34;monaco&amp;#34; , &amp;#34;courier new&amp;#34; , monospace ; color: rgb(204 , 202 , 194)&quot;&gt;&lt;div&gt;&lt;span style=&quot;color: #ffad66&quot;&gt;const&lt;/span&gt;&lt;span style=&quot;color: #cccac2&quot;&gt; &lt;/span&gt;&lt;span style=&quot;color: #cccac2&quot;&gt;elForm&lt;/span&gt;&lt;span style=&quot;color: #cccac2&quot;&gt; &lt;/span&gt;&lt;span style=&quot;color: #f29e74&quot;&gt;=&lt;/span&gt;&lt;span style=&quot;color: #cccac2&quot;&gt; &lt;/span&gt;&lt;span style=&quot;color: #ffd173&quot;&gt;inject&lt;/span&gt;&lt;span style=&quot;color: #cccac2&quot;&gt;(&lt;/span&gt;&lt;span style=&quot;color: #cccac2&quot;&gt;elFormKey&lt;/span&gt;&lt;span style=&quot;color: #cccac2&quot;&gt;,&lt;/span&gt;&lt;span style=&quot;color: #cccac2&quot;&gt; &lt;/span&gt;&lt;span style=&quot;color: #dfbfff&quot;&gt;undefined&lt;/span&gt;&lt;span style=&quot;color: #cccac2&quot;&gt;)&lt;/span&gt;&lt;/div&gt;&lt;div&gt;&lt;span style=&quot;color: #cccac2&quot;&gt;    &lt;/span&gt;&lt;span style=&quot;color: #ffad66&quot;&gt;const&lt;/span&gt;&lt;span style=&quot;color: #cccac2&quot;&gt; &lt;/span&gt;&lt;span style=&quot;color: #cccac2&quot;&gt;elFormItem&lt;/span&gt;&lt;span style=&quot;color: #cccac2&quot;&gt; &lt;/span&gt;&lt;span style=&quot;color: #f29e74&quot;&gt;=&lt;/span&gt;&lt;span style=&quot;color: #cccac2&quot;&gt; &lt;/span&gt;&lt;span style=&quot;color: #ffd173&quot;&gt;inject&lt;/span&gt;&lt;span style=&quot;color: #cccac2&quot;&gt;(&lt;/span&gt;&lt;span style=&quot;color: #cccac2&quot;&gt;elFormItemKey&lt;/span&gt;&lt;span style=&quot;color: #cccac2&quot;&gt;,&lt;/span&gt;&lt;span style=&quot;color: #cccac2&quot;&gt; &lt;/span&gt;&lt;span style=&quot;color: #dfbfff&quot;&gt;undefined&lt;/span&gt;&lt;span style=&quot;color: #cccac2&quot;&gt;)&lt;/span&gt;&lt;/div&gt;&lt;div&gt;&lt;span style=&quot;color: rgb(48 , 49 , 51) ; font-family: &amp;#34;inter&amp;#34; , &amp;#34;roboto&amp;#34; , &amp;#34;oxygen&amp;#34; , &amp;#34;fira sans&amp;#34; , &amp;#34;helvetica neue&amp;#34; , sans-serif ; font-size: 14px ; background-color: rgb(255 , 255 , 255)&quot;&gt;使用elForm的size等属性&lt;/span&gt;&lt;span style=&quot;color: #cccac2&quot;&gt;&lt;br&gt;&lt;/span&gt;&lt;/div&gt;&lt;div&gt;&lt;div&gt;&lt;span style=&quot;color: rgb(255 , 173 , 102)&quot;&gt;&lt;br&gt;&lt;/span&gt;&lt;/div&gt;&lt;div&gt;&lt;span style=&quot;color: rgb(255 , 173 , 102)&quot;&gt;&lt;br&gt;&lt;/span&gt;&lt;/div&gt;&lt;div&gt;&lt;span style=&quot;color: rgb(255 , 173 , 102)&quot;&gt;&lt;br&gt;&lt;/span&gt;&lt;/div&gt;&lt;div&gt;&lt;span style=&quot;color: rgb(255 , 173 , 102)&quot;&gt;&lt;br&gt;&lt;/span&gt;&lt;/div&gt;&lt;div&gt;&lt;span style=&quot;color: rgb(48 , 49 , 51) ; font-family: &amp;#34;inter&amp;#34; , &amp;#34;roboto&amp;#34; , &amp;#34;oxygen&amp;#34; , &amp;#34;fira sans&amp;#34; , &amp;#34;helvetica neue&amp;#34; , sans-serif ; font-size: 14px ; background-color: rgb(255 , 255 , 255)&quot;&gt;当input触发blur、change事件，调用elFormItem的validate方法&lt;/span&gt;&lt;span style=&quot;color: rgb(255 , 173 , 102)&quot;&gt;&lt;br&gt;&lt;/span&gt;&lt;/div&gt;&lt;div&gt;&lt;span style=&quot;color: rgb(255 , 173 , 102)&quot;&gt;if&lt;/span&gt;&amp;nbsp;(&lt;span style=&quot;color: rgb(223 , 191 , 255)&quot;&gt;props&lt;/span&gt;&lt;span style=&quot;color: rgb(242 , 158 , 116)&quot;&gt;.&lt;/span&gt;validateEvent) {&lt;/div&gt;&lt;div&gt;&amp;nbsp; &amp;nbsp;elFormItem&lt;span style=&quot;color: rgb(242 , 158 , 116)&quot;&gt;?.&lt;/span&gt;&lt;span style=&quot;color: rgb(255 , 209 , 115)&quot;&gt;validate&lt;/span&gt;&lt;span style=&quot;color: rgb(242 , 158 , 116)&quot;&gt;?.&lt;/span&gt;(&lt;span style=&quot;color: rgb(213 , 255 , 128)&quot;&gt;'blur'&lt;/span&gt;)//change&lt;/div&gt;&lt;div&gt;}&lt;/div&gt;&lt;/div&gt;&lt;/div&gt;" style="text;whiteSpace=wrap;html=1;" parent="1" vertex="1">
                    <mxGeometry x="860" y="462.5" width="412" height="247.5" as="geometry"/>
                </mxCell>
                <mxCell id="15" value="&lt;div style=&quot;color: rgb(204 , 202 , 194) ; background-color: rgb(31 , 36 , 48) ; font-family: &amp;#34;jetbrains mono&amp;#34; , &amp;#34;menlo&amp;#34; , &amp;#34;monaco&amp;#34; , &amp;#34;courier new&amp;#34; , monospace , &amp;#34;menlo&amp;#34; , &amp;#34;monaco&amp;#34; , &amp;#34;courier new&amp;#34; , monospace ; font-weight: normal ; font-size: 12px ; line-height: 18px&quot;&gt;&lt;br&gt;&lt;/div&gt;" style="text;whiteSpace=wrap;html=1;" parent="1" vertex="1">
                    <mxGeometry x="190" y="800" width="480" height="240" as="geometry"/>
                </mxCell>
                <mxCell id="23" value="" style="edgeStyle=none;html=1;strokeWidth=4;entryX=0;entryY=0.5;entryDx=0;entryDy=0;startArrow=classic;startFill=1;exitX=0.5;exitY=1;exitDx=0;exitDy=0;" parent="1" source="16" target="20" edge="1">
                    <mxGeometry relative="1" as="geometry">
                        <mxPoint x="100" y="530" as="sourcePoint"/>
                        <mxPoint x="330" y="460" as="targetPoint"/>
                        <Array as="points">
                            <mxPoint x="-135" y="710"/>
                        </Array>
                    </mxGeometry>
                </mxCell>
                <mxCell id="29" value="" style="edgeStyle=none;html=1;strokeWidth=4;exitX=1;exitY=0.5;exitDx=0;exitDy=0;" parent="1" source="16" edge="1">
                    <mxGeometry relative="1" as="geometry">
                        <mxPoint x="850" y="490" as="targetPoint"/>
                        <Array as="points"/>
                    </mxGeometry>
                </mxCell>
                <mxCell id="16" value="&lt;div style=&quot;font-weight: normal ; line-height: 18px ; background-color: rgb(31 , 36 , 48) ; font-size: 12px ; font-family: &amp;#34;jetbrains mono&amp;#34; , &amp;#34;menlo&amp;#34; , &amp;#34;monaco&amp;#34; , &amp;#34;courier new&amp;#34; , monospace , &amp;#34;menlo&amp;#34; , &amp;#34;monaco&amp;#34; , &amp;#34;courier new&amp;#34; , monospace ; color: rgb(204 , 202 , 194)&quot;&gt;&lt;div&gt;&lt;span style=&quot;color: #ffd173&quot;&gt;provide&lt;/span&gt;&lt;span style=&quot;color: #cccac2&quot;&gt;(&lt;/span&gt;&lt;span style=&quot;color: #cccac2&quot;&gt;elForm&lt;/span&gt;&lt;span style=&quot;color: #cccac2&quot;&gt;,{&lt;/span&gt;&lt;/div&gt;&lt;div&gt;&lt;div style=&quot;font-family: &amp;#34;jetbrains mono&amp;#34; , &amp;#34;menlo&amp;#34; , &amp;#34;monaco&amp;#34; , &amp;#34;courier new&amp;#34; , monospace , &amp;#34;menlo&amp;#34; , &amp;#34;monaco&amp;#34; , &amp;#34;courier new&amp;#34; , monospace ; line-height: 18px&quot;&gt;&lt;div&gt;&lt;span style=&quot;color: #f29e74&quot;&gt;&amp;nbsp; ...&lt;/span&gt;&lt;span style=&quot;color: #ffd173&quot;&gt;toRefs&lt;/span&gt;(&lt;span style=&quot;color: #dfbfff&quot;&gt;props&lt;/span&gt;),&lt;/div&gt;&lt;div&gt;&lt;span style=&quot;color: #ffd173&quot;&gt;&amp;nbsp; addField&lt;/span&gt;,&lt;/div&gt;&lt;div&gt;&lt;span style=&quot;color: #ffd173&quot;&gt;&amp;nbsp; removeField&lt;/span&gt;,&lt;/div&gt;&lt;div&gt;&amp;nbsp; 。。。&lt;/div&gt;&lt;/div&gt;&lt;/div&gt;&lt;div&gt;&lt;span style=&quot;color: #cccac2&quot;&gt;}&lt;/span&gt;&lt;span style=&quot;color: #cccac2&quot;&gt;)&lt;/span&gt;&lt;/div&gt;&lt;div&gt;&lt;span style=&quot;color: rgb(48 , 49 , 51) ; font-family: &amp;#34;inter&amp;#34; , &amp;#34;roboto&amp;#34; , &amp;#34;oxygen&amp;#34; , &amp;#34;fira sans&amp;#34; , &amp;#34;helvetica neue&amp;#34; , sans-serif ; font-size: 14px ; background-color: rgb(255 , 255 , 255)&quot;&gt;field中存了elFormItem实例，通过实例可以拿到需要校验项的这三个方法，循环遍历的结果为表单结果&lt;/span&gt;&lt;/div&gt;&lt;div&gt;&lt;span style=&quot;color: rgb(255 , 209 , 115)&quot;&gt;resetField&lt;/span&gt;,//&lt;/div&gt;&lt;div&gt;&lt;div&gt;&lt;span style=&quot;color: rgb(255 , 209 , 115)&quot;&gt;clearValidate&lt;/span&gt;,//&lt;/div&gt;&lt;div&gt;&lt;span style=&quot;color: rgb(255 , 209 , 115)&quot;&gt;validate&lt;/span&gt;,//&lt;/div&gt;&lt;/div&gt;&lt;/div&gt;" style="text;whiteSpace=wrap;html=1;" parent="1" vertex="1">
                    <mxGeometry x="-360" y="395" width="450" height="190" as="geometry"/>
                </mxCell>
                <mxCell id="24" value="" style="edgeStyle=none;html=1;strokeWidth=4;exitX=1;exitY=0.5;exitDx=0;exitDy=0;startArrow=classic;startFill=1;" parent="1" source="15" edge="1">
                    <mxGeometry relative="1" as="geometry">
                        <mxPoint x="470" y="869.9999999999998" as="sourcePoint"/>
                        <mxPoint x="850" y="570" as="targetPoint"/>
                        <Array as="points">
                            <mxPoint x="750" y="920"/>
                            <mxPoint x="750" y="570"/>
                        </Array>
                    </mxGeometry>
                </mxCell>
                <mxCell id="36" value="&lt;span style=&quot;color: rgb(255 , 102 , 102) ; background-color: rgb(248 , 249 , 250)&quot;&gt;&lt;font style=&quot;font-size: 16px&quot;&gt;provide➡️inject&lt;/font&gt;&lt;/span&gt;" style="edgeLabel;html=1;align=center;verticalAlign=middle;resizable=0;points=[];rotation=-90;" parent="24" vertex="1" connectable="0">
                    <mxGeometry x="-0.0884" y="4" relative="1" as="geometry">
                        <mxPoint x="-16" y="-2" as="offset"/>
                    </mxGeometry>
                </mxCell>
                <mxCell id="39" value="&lt;font style=&quot;font-size: 16px&quot; color=&quot;#b266ff&quot;&gt;⬅️调用elFormItem的validate方法&lt;/font&gt;" style="edgeLabel;html=1;align=center;verticalAlign=middle;resizable=0;points=[];rotation=-90;" parent="24" vertex="1" connectable="0">
                    <mxGeometry x="-0.2909" y="-6" relative="1" as="geometry">
                        <mxPoint x="24" y="-12" as="offset"/>
                    </mxGeometry>
                </mxCell>
                <mxCell id="20" value="&lt;div style=&quot;font-weight: normal ; line-height: 18px ; background-color: rgb(31 , 36 , 48) ; font-size: 12px ; font-family: &amp;#34;jetbrains mono&amp;#34; , &amp;#34;menlo&amp;#34; , &amp;#34;monaco&amp;#34; , &amp;#34;courier new&amp;#34; , monospace , &amp;#34;menlo&amp;#34; , &amp;#34;monaco&amp;#34; , &amp;#34;courier new&amp;#34; , monospace ; color: rgb(204 , 202 , 194)&quot;&gt;&lt;div&gt;&lt;span style=&quot;color: #ffad66&quot;&gt;const&lt;/span&gt;&lt;span style=&quot;color: #cccac2&quot;&gt; &lt;/span&gt;&lt;span style=&quot;color: #cccac2&quot;&gt;elForm&lt;/span&gt;&lt;span style=&quot;color: #cccac2&quot;&gt; &lt;/span&gt;&lt;span style=&quot;color: #f29e74&quot;&gt;=&lt;/span&gt;&lt;span style=&quot;color: #cccac2&quot;&gt; &lt;/span&gt;&lt;span style=&quot;color: #ffd173&quot;&gt;inject&lt;/span&gt;&lt;span style=&quot;color: #cccac2&quot;&gt;(&lt;/span&gt;&lt;span style=&quot;color: #cccac2&quot;&gt;elForm&lt;/span&gt;&lt;span style=&quot;color: #cccac2&quot;&gt;,&lt;/span&gt;&lt;span style=&quot;color: #cccac2&quot;&gt; {}&lt;/span&gt;&lt;span style=&quot;color: #cccac2&quot;&gt;)&lt;/span&gt;&lt;/div&gt;&lt;div&gt;&lt;span style=&quot;color: rgb(48 , 49 , 51) ; font-family: &amp;#34;inter&amp;#34; , &amp;#34;roboto&amp;#34; , &amp;#34;oxygen&amp;#34; , &amp;#34;fira sans&amp;#34; , &amp;#34;helvetica neue&amp;#34; , sans-serif ; font-size: 14px ; background-color: rgb(255 , 255 , 255)&quot;&gt;用于拿到elfrom的prop、及当前modlevalue&lt;/span&gt;&lt;/div&gt;&lt;div&gt;&lt;span style=&quot;color: rgb(48 , 49 , 51) ; font-family: &amp;#34;inter&amp;#34; , &amp;#34;roboto&amp;#34; , &amp;#34;oxygen&amp;#34; , &amp;#34;fira sans&amp;#34; , &amp;#34;helvetica neue&amp;#34; , sans-serif ; font-size: 14px ; background-color: rgb(255 , 255 , 255)&quot;&gt;同时，&lt;/span&gt;&lt;/div&gt;&lt;div&gt;&lt;span style=&quot;color: rgb(48 , 49 , 51) ; font-family: &amp;#34;inter&amp;#34; , &amp;#34;roboto&amp;#34; , &amp;#34;oxygen&amp;#34; , &amp;#34;fira sans&amp;#34; , &amp;#34;helvetica neue&amp;#34; , sans-serif ; font-size: 14px ; background-color: rgb(255 , 255 , 255)&quot;&gt;将需要校验的elFormItem放入到elForm&lt;/span&gt;&lt;/div&gt;&lt;div&gt;&lt;div style=&quot;font-family: &amp;#34;jetbrains mono&amp;#34; , &amp;#34;menlo&amp;#34; , &amp;#34;monaco&amp;#34; , &amp;#34;courier new&amp;#34; , monospace , &amp;#34;menlo&amp;#34; , &amp;#34;monaco&amp;#34; , &amp;#34;courier new&amp;#34; , monospace ; line-height: 18px&quot;&gt;&lt;div&gt;&lt;span style=&quot;color: #ffd173&quot;&gt;onMounted&lt;/span&gt;(() &lt;span style=&quot;color: #ffad66&quot;&gt;=&amp;gt;&lt;/span&gt; {&lt;/div&gt;&lt;div&gt;      &lt;span style=&quot;color: #ffad66&quot;&gt;&amp;nbsp; if&lt;/span&gt; (&lt;span style=&quot;color: #dfbfff&quot;&gt;props&lt;/span&gt;&lt;span style=&quot;color: #f29e74&quot;&gt;.&lt;/span&gt;prop) {&lt;/div&gt;&lt;div&gt;&amp;nbsp; &amp;nbsp; elForm&lt;span style=&quot;color: #f29e74&quot;&gt;?.&lt;/span&gt;&lt;span style=&quot;color: #ffd173&quot;&gt;addField&lt;/span&gt;(elFormItem)&lt;/div&gt;&lt;div&gt;&amp;nbsp; }&lt;/div&gt;&lt;div&gt;    })&lt;/div&gt;&lt;div&gt;    &lt;span style=&quot;color: #ffd173&quot;&gt;onBeforeUnmount&lt;/span&gt;(() &lt;span style=&quot;color: #ffad66&quot;&gt;=&amp;gt;&lt;/span&gt; {&lt;/div&gt;&lt;div&gt;&amp;nbsp; &amp;nbsp;elForm&lt;span style=&quot;color: #f29e74&quot;&gt;?.&lt;/span&gt;&lt;span style=&quot;color: #ffd173&quot;&gt;removeField&lt;/span&gt;(elFormItem)&lt;/div&gt;&lt;div&gt;    })&lt;/div&gt;&lt;div&gt;&lt;br&gt;&lt;/div&gt;&lt;div&gt;&lt;div&gt;&lt;span style=&quot;color: rgb(255 , 209 , 115)&quot;&gt;provide&lt;/span&gt;(elFormItem,{&lt;/div&gt;&lt;div&gt;&lt;div style=&quot;line-height: 18px&quot;&gt;&lt;span style=&quot;color: rgb(242 , 158 , 116)&quot;&gt;&amp;nbsp; ...&lt;/span&gt;&lt;span style=&quot;color: rgb(255 , 209 , 115)&quot;&gt;toRefs&lt;/span&gt;(&lt;span style=&quot;color: rgb(223 , 191 , 255)&quot;&gt;props&lt;/span&gt;),&lt;br&gt;&lt;/div&gt;&lt;div style=&quot;line-height: 18px&quot;&gt;&lt;div&gt;&amp;nbsp; size: sizeClass,&lt;/div&gt;&lt;div&gt;&amp;nbsp; validateState,&lt;/div&gt;&lt;div&gt;&amp;nbsp; $el: formItemRef,&lt;/div&gt;&lt;div&gt;&lt;span style=&quot;color: rgb(255 , 209 , 115)&quot;&gt;&amp;nbsp; evaluateValidationEnabled&lt;/span&gt;,&lt;/div&gt;&lt;div&gt;&lt;span style=&quot;color: rgb(255 , 209 , 115)&quot;&gt;&amp;nbsp; resetField&lt;/span&gt;,//&lt;span style=&quot;background-color: rgb(255 , 255 , 255) ; color: rgb(48 , 49 , 51) ; font-family: &amp;#34;inter&amp;#34; , &amp;#34;roboto&amp;#34; , &amp;#34;oxygen&amp;#34; , &amp;#34;fira sans&amp;#34; , &amp;#34;helvetica neue&amp;#34; , sans-serif ; font-size: 14px&quot;&gt;表单项进行重置，将其值重置为初始值并移除校验结果&lt;/span&gt;&lt;/div&gt;&lt;div&gt;&lt;span style=&quot;color: rgb(255 , 209 , 115)&quot;&gt;&amp;nbsp; clearValidate&lt;/span&gt;,//&lt;span style=&quot;background-color: rgb(255 , 255 , 255) ; color: rgb(48 , 49 , 51) ; font-family: &amp;#34;inter&amp;#34; , &amp;#34;roboto&amp;#34; , &amp;#34;oxygen&amp;#34; , &amp;#34;fira sans&amp;#34; , &amp;#34;helvetica neue&amp;#34; , sans-serif ; font-size: 14px&quot;&gt;移除该字段的验证状态&lt;/span&gt;&lt;/div&gt;&lt;div&gt;&lt;span style=&quot;color: rgb(255 , 209 , 115)&quot;&gt;&amp;nbsp; validate&lt;/span&gt;,//&lt;span style=&quot;background-color: rgb(255 , 255 , 255) ; color: rgb(48 , 49 , 51) ; font-family: &amp;#34;inter&amp;#34; , &amp;#34;roboto&amp;#34; , &amp;#34;oxygen&amp;#34; , &amp;#34;fira sans&amp;#34; , &amp;#34;helvetica neue&amp;#34; , sans-serif ; font-size: 14px&quot;&gt;表单项校验&lt;/span&gt;&lt;/div&gt;&lt;div&gt;&lt;span style=&quot;color: rgb(255 , 209 , 115)&quot;&gt;&amp;nbsp; updateComputedLabelWidth&lt;/span&gt;,&lt;/div&gt;&lt;/div&gt;&lt;/div&gt;&lt;div&gt;})&lt;/div&gt;&lt;/div&gt;&lt;div&gt;&lt;br&gt;&lt;/div&gt;&lt;/div&gt;&lt;/div&gt;&lt;/div&gt;" style="text;whiteSpace=wrap;html=1;" parent="1" vertex="1">
                    <mxGeometry x="205" y="600" width="450" height="220" as="geometry"/>
                </mxCell>
                <mxCell id="30" value="&lt;font style=&quot;font-size: 16px&quot; color=&quot;#ff6666&quot;&gt;provide➡️inject&lt;/font&gt;" style="text;html=1;align=center;verticalAlign=middle;resizable=0;points=[];autosize=1;strokeColor=none;" parent="1" vertex="1">
                    <mxGeometry x="-35" y="680" width="120" height="20" as="geometry"/>
                </mxCell>
                <mxCell id="31" value="&lt;font style=&quot;font-size: 16px&quot; color=&quot;#9933ff&quot;&gt;⬅️向elform中的filed注入需要校验的elFormItem&lt;/font&gt;" style="text;html=1;align=center;verticalAlign=middle;resizable=0;points=[];autosize=1;strokeColor=none;" parent="1" vertex="1">
                    <mxGeometry x="-150" y="720" width="350" height="20" as="geometry"/>
                </mxCell>
                <mxCell id="35" value="&lt;span style=&quot;color: rgb(255 , 102 , 102)&quot;&gt;&lt;font style=&quot;font-size: 16px&quot;&gt;provide➡️inject&lt;/font&gt;&lt;/span&gt;" style="text;html=1;align=center;verticalAlign=middle;resizable=0;points=[];autosize=1;strokeColor=none;" parent="1" vertex="1">
                    <mxGeometry x="300" y="470" width="120" height="20" as="geometry"/>
                </mxCell>
            </root>
        </mxGraphModel>
    </diagram>
</mxfile>